<?xml version="1.0" standalone="no"?>
<!DOCTYPE svg PUBLIC "-//W3C//DTD SVG 20010904//EN"
 "http://www.w3.org/TR/2001/REC-SVG-20010904/DTD/svg10.dtd">
<svg version="1.0" xmlns="http://www.w3.org/2000/svg"
 width="250.000000pt" height="250.000000pt" viewBox="0 0 250.000000 250.000000"
 preserveAspectRatio="xMidYMid meet">

<g transform="translate(0.000000,250.000000) scale(0.100000,-0.100000)"
fill="#000000" stroke="none">
<path d="M0 1250 l0 -1250 1250 0 1250 0 0 1250 0 1250 -1250 0 -1250 0 0
-1250z m1461 744 c112 -53 212 -104 222 -112 15 -13 17 -36 17 -200 0 -223 0
-222 -97 -222 -68 0 -103 -12 -103 -35 0 -7 84 -234 186 -505 103 -270 185
-493 183 -495 -3 -2 -51 -5 -108 -6 l-104 -2 -40 79 c-35 67 -67 105 -204 244
l-163 165 -163 -165 c-137 -139 -169 -177 -204 -244 l-40 -79 -104 2 c-57 1
-105 4 -107 6 -2 1 85 227 193 500 227 577 220 535 84 535 -110 0 -109 -2
-109 220 0 127 4 181 13 194 11 16 408 213 433 215 6 1 103 -42 215 -95z"/>
<path d="M1002 1705 l3 -76 245 0 245 0 3 76 3 75 -251 0 -251 0 3 -75z"/>
<path d="M1227 1358 c-9 -7 -35 -58 -57 -113 l-40 -99 59 -60 59 -59 34 29
c18 16 47 45 64 64 l32 35 -35 90 c-46 121 -71 146 -116 113z"/>
<path d="M1357 1012 l-47 -48 111 -109 c83 -83 107 -103 99 -80 -7 17 -32 84
-57 150 -24 66 -48 123 -52 127 -4 5 -28 -14 -54 -40z"/>
<path d="M1050 938 c-24 -62 -50 -129 -57 -148 -12 -30 2 -19 91 70 l106 104
-42 43 c-23 24 -45 43 -49 43 -3 0 -25 -51 -49 -112z"/>
</g>
</svg>
